<svg viewBox="0 0 244 84.63414634146342" xmlns="http://www.w3.org/2000/svg" id="Capa_1" style="max-height: 500px" width="244" height="84.63414634146342"><path style="fill:#4bbcee; stroke-width:0px;" d="M16.18,8.46l15.59,41.84,15.38-41.32c2.15-5.84,5.43-6.36,7.48-6.36,4.2,0,7.9,3.28,7.9,7.38,0,1.33-.2,2.46-.72,3.69l-22.15,56.4c-2.26,5.84-4.61,6.77-7.9,6.77-2.67,0-5.43-.41-8-6.97L2.33,15.43c-.82-2.05-1.33-3.28-1.33-5.43,0-4.1,3.69-7.38,7.9-7.38,3.59,0,6.05,2.56,7.28,5.85Z"/><path style="fill:#4bbcee; stroke-width:0px;" d="M59.96,69.68c0-.92.1-1.64.82-3.69l20.3-54.96c2.05-5.54,6.26-9.02,11.18-9.02s9.02,3.08,10.87,8.31l20.2,56.09c.51,1.43.82,2.77.82,3.69,0,3.9-3.28,6.77-7.07,6.77-4.41,0-6.56-2.46-7.59-5.64l-2.97-9.33h-28.51l-3.08,9.54c-1.02,3.08-3.08,5.43-7.48,5.43-4,0-7.49-3.08-7.49-7.18ZM82.42,47.73h19.48l-9.54-29.74h-.2l-9.74,29.74Z"/><path style="fill:#4bbcee; stroke-width:0px;" d="M177.37,12.25c0,4.2-2.87,7.59-6.87,7.59-3.69,0-8.2-3.08-13.54-3.08s-8.51,2.87-8.51,6.66c0,3.38,3.9,5.43,10.97,7.28,19.38,4.92,23.28,13.13,23.28,22.97,0,13.95-11.38,23.79-26.25,23.79-13.33,0-24.92-3.79-24.92-11.48,0-4.2,2.87-7.28,6.87-7.28,4.41,0,10.87,4,17.23,4s10.46-3.49,10.46-8.82c0-4.2-4.1-6.46-12.41-8.51-16.92-4.2-21.84-10.46-21.84-20.1,0-14.15,11.59-23.28,25.43-23.28,8.61,0,20.1,3.28,20.1,10.25Z"/><path style="fill:#4bbcee; stroke-width:0px;" d="M237.67,12.25c0,4.2-2.87,7.59-6.87,7.59-3.69,0-8.2-3.08-13.54-3.08s-8.51,2.87-8.51,6.66c0,3.38,3.9,5.43,10.97,7.28,19.38,4.92,23.28,13.13,23.28,22.97,0,13.95-11.38,23.79-26.25,23.79-13.33,0-24.92-3.79-24.92-11.48,0-4.2,2.87-7.28,6.87-7.28,4.41,0,10.87,4,17.23,4s10.46-3.49,10.46-8.82c0-4.2-4.1-6.46-12.41-8.51-16.92-4.2-21.84-10.46-21.84-20.1,0-14.15,11.59-23.28,25.43-23.28,8.61,0,20.1,3.28,20.1,10.25Z"/><path style="fill:#4bbcee; stroke-width:0px;" d="M84.34,90.07v-2.07h15v2.07h-6.33v18.69h-2.28v-18.69h-6.39Z"/><path style="fill:#4bbcee; stroke-width:0px;" d="M102.28,108.76v-20.76h12.63v2.04h-10.32v7.17h8.52v2.01h-8.52v7.5h10.32v2.04h-12.63Z"/><path style="fill:#4bbcee; stroke-width:0px;" d="M117.04,108.76l5.7-20.76h5.04l5.7,20.76h-2.28l-1.5-5.34h-8.88l-1.5,5.34h-2.28ZM124.48,89.98l-3.15,11.37h7.86l-3.15-11.37h-1.56Z"/><path style="fill:#4bbcee; stroke-width:0px;" d="M136.75,108.76v-20.76h4.17l5.88,17.55,5.88-17.55h4.17v20.76h-2.31v-18.3h-.42l-6.03,17.55h-2.58l-6.03-17.55h-.42v18.3h-2.31Z"/></svg>